# xmcd
#
# Track frame offsets: 
#        150
#        4398
#        89282
#        116761
#        137699
#        198038
#        213807
#        252356
#
# Disc length: 3835 seconds
#
# Revision: 0
# Processed by: cddbd v1.5.2PL0 Copyright (c) Steve Scherf et al.
# Submitted via: ExactAudioCopy v0.99pb4
#
DISCID=670ef908
DTITLE=Jimi Hendrix and B.B. King - The Kings' Jam (Bootleg)
DYEAR=1968
DGENRE=Blues
TTITLE0=Band Introduction By B.B. King
TTITLE1=Blues Jam #1 (Part 1)
TTITLE2=Blues Jam #1 (Part 2)
TTITLE3=Blues Jam #2 (Part 1)
TTITLE4=Blues Jam #2 (Part 2)
TTITLE5=Blues Jam #3
TTITLE6=It's My Own Fault
TTITLE7=Like A Rolling Stone
EXTD=
EXTT0=
EXTT1=
EXTT2=
EXTT3=
EXTT4=
EXTT5=
EXTT6=
EXTT7=
PLAYORDER=
